<svg xmlns="http://www.w3.org/2000/svg" viewBox="0 0 2400 1200" width="100%" height="100%" style="background: #fafafa; cursor: grab;" id="chizu-svg">
  <defs>
    <marker id="arrowhead" markerWidth="10" markerHeight="7" refX="9" refY="3.5" orient="auto">
      <polygon points="0 0, 10 3.5, 0 7" fill="#94a3b8"/>
    </marker>
  </defs>
  <g id="viewport">
  <path d="M 700 200 C 700 280, 1700 280, 1700 360" 
        stroke="#64748b" stroke-width="1" stroke-dasharray="5,5" 
        fill="none" marker-end="url(#arrowhead)"/>
  <path d="M 1700 360 C 1100 330, 1100 330, 500 360" 
        stroke="#64748b" stroke-width="1" stroke-dasharray="5,5" 
        fill="none" marker-end="url(#arrowhead)"/>
  <path d="M 700 80 C 700 220, 1700 220, 1700 360" 
        stroke="#64748b" stroke-width="1" stroke-dasharray="5,5" 
        fill="none" marker-end="url(#arrowhead)"/>
  <path d="M 700 80 C 700 220, 500 220, 500 360" 
        stroke="#64748b" stroke-width="1" stroke-dasharray="5,5" 
        fill="none" marker-end="url(#arrowhead)"/>
  <path d="M 700 80 C 700 220, 700 220, 700 360" 
        stroke="#64748b" stroke-width="1" stroke-dasharray="5,5" 
        fill="none" marker-end="url(#arrowhead)"/>
  <path d="M 700 80 C 700 220, 1900 220, 1900 360" 
        stroke="#64748b" stroke-width="1" stroke-dasharray="5,5" 
        fill="none" marker-end="url(#arrowhead)"/>
  <path d="M 700 80 C 700 220, 100 220, 100 360" 
        stroke="#64748b" stroke-width="1" stroke-dasharray="5,5" 
        fill="none" marker-end="url(#arrowhead)"/>
  <path d="M 700 80 C 700 220, 2100 220, 2100 360" 
        stroke="#64748b" stroke-width="1" stroke-dasharray="5,5" 
        fill="none" marker-end="url(#arrowhead)"/>
  <path d="M 2100 80 C 2100 220, 1700 220, 1700 360" 
        stroke="#64748b" stroke-width="1" stroke-dasharray="5,5" 
        fill="none" marker-end="url(#arrowhead)"/>
  <path d="M 2100 80 C 2100 220, 500 220, 500 360" 
        stroke="#64748b" stroke-width="1" stroke-dasharray="5,5" 
        fill="none" marker-end="url(#arrowhead)"/>
  <path d="M 1300 360 C 1800 330, 1800 330, 2300 360" 
        stroke="#64748b" stroke-width="1" stroke-dasharray="5,5" 
        fill="none" marker-end="url(#arrowhead)"/>
  <path d="M 1100 360 C 1700 330, 1700 330, 2300 360" 
        stroke="#64748b" stroke-width="1" stroke-dasharray="5,5" 
        fill="none" marker-end="url(#arrowhead)"/>
  <path d="M 1700 200 C 1700 280, 2100 280, 2100 360" 
        stroke="#64748b" stroke-width="1" stroke-dasharray="5,5" 
        fill="none" marker-end="url(#arrowhead)"/>
  <path d="M 500 200 C 500 280, 1700 280, 1700 360" 
        stroke="#64748b" stroke-width="1" stroke-dasharray="5,5" 
        fill="none" marker-end="url(#arrowhead)"/>
  <path d="M 500 200 C 500 280, 900 280, 900 360" 
        stroke="#64748b" stroke-width="1" stroke-dasharray="5,5" 
        fill="none" marker-end="url(#arrowhead)"/>
  <path d="M 500 200 C 500 280, 700 280, 700 360" 
        stroke="#64748b" stroke-width="1" stroke-dasharray="5,5" 
        fill="none" marker-end="url(#arrowhead)"/>
  <path d="M 300 200 C 300 280, 1700 280, 1700 360" 
        stroke="#64748b" stroke-width="1" stroke-dasharray="5,5" 
        fill="none" marker-end="url(#arrowhead)"/>
  <path d="M 1100 80 C 1100 220, 1700 220, 1700 360" 
        stroke="#64748b" stroke-width="1" stroke-dasharray="5,5" 
        fill="none" marker-end="url(#arrowhead)"/>
  <path d="M 1100 80 C 1100 220, 900 220, 900 360" 
        stroke="#64748b" stroke-width="1" stroke-dasharray="5,5" 
        fill="none" marker-end="url(#arrowhead)"/>
  <path d="M 1100 80 C 1100 220, 700 220, 700 360" 
        stroke="#64748b" stroke-width="1" stroke-dasharray="5,5" 
        fill="none" marker-end="url(#arrowhead)"/>
  <path d="M 1900 360 C 1800 330, 1800 330, 1700 360" 
        stroke="#64748b" stroke-width="1" stroke-dasharray="5,5" 
        fill="none" marker-end="url(#arrowhead)"/>
  <path d="M 1900 360 C 1400 330, 1400 330, 900 360" 
        stroke="#64748b" stroke-width="1" stroke-dasharray="5,5" 
        fill="none" marker-end="url(#arrowhead)"/>
  <path d="M 1900 360 C 1300 330, 1300 330, 700 360" 
        stroke="#64748b" stroke-width="1" stroke-dasharray="5,5" 
        fill="none" marker-end="url(#arrowhead)"/>
  <path d="M 1100 200 C 1100 280, 1700 280, 1700 360" 
        stroke="#64748b" stroke-width="1" stroke-dasharray="5,5" 
        fill="none" marker-end="url(#arrowhead)"/>
  <path d="M 1100 200 C 1100 280, 900 280, 900 360" 
        stroke="#64748b" stroke-width="1" stroke-dasharray="5,5" 
        fill="none" marker-end="url(#arrowhead)"/>
  <path d="M 1100 200 C 1100 280, 700 280, 700 360" 
        stroke="#64748b" stroke-width="1" stroke-dasharray="5,5" 
        fill="none" marker-end="url(#arrowhead)"/>
  <path d="M 1900 80 C 1900 220, 1700 220, 1700 360" 
        stroke="#64748b" stroke-width="1" stroke-dasharray="5,5" 
        fill="none" marker-end="url(#arrowhead)"/>
  <path d="M 1900 80 C 1900 220, 900 220, 900 360" 
        stroke="#64748b" stroke-width="1" stroke-dasharray="5,5" 
        fill="none" marker-end="url(#arrowhead)"/>
  <path d="M 1900 80 C 1900 220, 700 220, 700 360" 
        stroke="#64748b" stroke-width="1" stroke-dasharray="5,5" 
        fill="none" marker-end="url(#arrowhead)"/>
  <path d="M 1500 360 C 1600 330, 1600 330, 1700 360" 
        stroke="#64748b" stroke-width="1" stroke-dasharray="5,5" 
        fill="none" marker-end="url(#arrowhead)"/>
  <path d="M 1500 360 C 1000 330, 1000 330, 500 360" 
        stroke="#64748b" stroke-width="1" stroke-dasharray="5,5" 
        fill="none" marker-end="url(#arrowhead)"/>
  <path d="M 1500 360 C 1200 330, 1200 330, 900 360" 
        stroke="#64748b" stroke-width="1" stroke-dasharray="5,5" 
        fill="none" marker-end="url(#arrowhead)"/>
  <path d="M 1700 80 C 1700 220, 1700 220, 1700 360" 
        stroke="#64748b" stroke-width="1" stroke-dasharray="5,5" 
        fill="none" marker-end="url(#arrowhead)"/>
  <path d="M 1700 80 C 1700 220, 500 220, 500 360" 
        stroke="#64748b" stroke-width="1" stroke-dasharray="5,5" 
        fill="none" marker-end="url(#arrowhead)"/>
  <path d="M 2300 80 C 2300 220, 1700 220, 1700 360" 
        stroke="#64748b" stroke-width="1" stroke-dasharray="5,5" 
        fill="none" marker-end="url(#arrowhead)"/>
  <path d="M 2300 80 C 2300 220, 900 220, 900 360" 
        stroke="#64748b" stroke-width="1" stroke-dasharray="5,5" 
        fill="none" marker-end="url(#arrowhead)"/>
  <path d="M 2300 80 C 2300 220, 700 220, 700 360" 
        stroke="#64748b" stroke-width="1" stroke-dasharray="5,5" 
        fill="none" marker-end="url(#arrowhead)"/>
  <path d="M 100 360 C 900 330, 900 330, 1700 360" 
        stroke="#64748b" stroke-width="1" stroke-dasharray="5,5" 
        fill="none" marker-end="url(#arrowhead)"/>
  <path d="M 100 360 C 500 330, 500 330, 900 360" 
        stroke="#64748b" stroke-width="1" stroke-dasharray="5,5" 
        fill="none" marker-end="url(#arrowhead)"/>
  <path d="M 100 360 C 400 330, 400 330, 700 360" 
        stroke="#64748b" stroke-width="1" stroke-dasharray="5,5" 
        fill="none" marker-end="url(#arrowhead)"/>
  <path d="M 300 80 C 300 220, 1300 220, 1300 360" 
        stroke="#cbd5e1" stroke-width="1" stroke-dasharray="none" 
        fill="none" marker-end="url(#arrowhead)"/>
  <path d="M 300 80 C 300 220, 1100 220, 1100 360" 
        stroke="#cbd5e1" stroke-width="1" stroke-dasharray="none" 
        fill="none" marker-end="url(#arrowhead)"/>
  <path d="M 300 80 C 300 220, 2300 220, 2300 360" 
        stroke="#cbd5e1" stroke-width="1" stroke-dasharray="none" 
        fill="none" marker-end="url(#arrowhead)"/>
  <path d="M 300 80 C 300 220, 1500 220, 1500 360" 
        stroke="#64748b" stroke-width="1" stroke-dasharray="5,5" 
        fill="none" marker-end="url(#arrowhead)"/>
  <path d="M 1300 80 C 1300 220, 2100 220, 2100 360" 
        stroke="#64748b" stroke-width="1" stroke-dasharray="5,5" 
        fill="none" marker-end="url(#arrowhead)"/>
  <path d="M 1300 200 C 1300 280, 2100 280, 2100 360" 
        stroke="#64748b" stroke-width="1" stroke-dasharray="5,5" 
        fill="none" marker-end="url(#arrowhead)"/>
  <path d="M 100 80 C 100 220, 300 220, 300 360" 
        stroke="#cbd5e1" stroke-width="1" stroke-dasharray="none" 
        fill="none" marker-end="url(#arrowhead)"/>
  <path d="M 300 360 C 300 440, 1300 440, 1300 520" 
        stroke="#cbd5e1" stroke-width="1" stroke-dasharray="none" 
        fill="none" marker-end="url(#arrowhead)"/>
  <path d="M 300 360 C 300 440, 1100 440, 1100 520" 
        stroke="#cbd5e1" stroke-width="1" stroke-dasharray="none" 
        fill="none" marker-end="url(#arrowhead)"/>
  <path d="M 1100 520 C 1100 600, 1200 600, 1200 680" 
        stroke="#cbd5e1" stroke-width="1" stroke-dasharray="none" 
        fill="none" marker-end="url(#arrowhead)"/>
  <path d="M 1200 680 C 1200 760, 1300 760, 1300 840" 
        stroke="#cbd5e1" stroke-width="1" stroke-dasharray="none" 
        fill="none" marker-end="url(#arrowhead)"/>
  <path d="M 1200 680 C 1200 760, 1100 760, 1100 840" 
        stroke="#cbd5e1" stroke-width="1" stroke-dasharray="none" 
        fill="none" marker-end="url(#arrowhead)"/>
  <path d="M 1300 840 C 1300 920, 1300 920, 1300 1000" 
        stroke="#cbd5e1" stroke-width="1" stroke-dasharray="none" 
        fill="none" marker-end="url(#arrowhead)"/>
  <path d="M 1300 1000 C 1300 1080, 1200 1080, 1200 1160" 
        stroke="#cbd5e1" stroke-width="1" stroke-dasharray="none" 
        fill="none" marker-end="url(#arrowhead)"/>
  <path d="M 1300 1000 C 1300 1080, 1600 1080, 1600 1160" 
        stroke="#cbd5e1" stroke-width="1" stroke-dasharray="none" 
        fill="none" marker-end="url(#arrowhead)"/>
  <path d="M 1300 1000 C 1300 1080, 800 1080, 800 1160" 
        stroke="#cbd5e1" stroke-width="1" stroke-dasharray="none" 
        fill="none" marker-end="url(#arrowhead)"/>
  <path d="M 1100 840 C 1100 920, 1100 920, 1100 1000" 
        stroke="#cbd5e1" stroke-width="1" stroke-dasharray="none" 
        fill="none" marker-end="url(#arrowhead)"/>
  <path d="M 1100 1000 C 1100 1080, 600 1080, 600 1160" 
        stroke="#cbd5e1" stroke-width="1" stroke-dasharray="none" 
        fill="none" marker-end="url(#arrowhead)"/>
  <path d="M 1100 1000 C 1100 1080, 1400 1080, 1400 1160" 
        stroke="#cbd5e1" stroke-width="1" stroke-dasharray="none" 
        fill="none" marker-end="url(#arrowhead)"/>
  <path d="M 1100 1000 C 1100 1080, 2000 1080, 2000 1160" 
        stroke="#cbd5e1" stroke-width="1" stroke-dasharray="none" 
        fill="none" marker-end="url(#arrowhead)"/>
  <path d="M 1100 1000 C 1100 1080, 400 1080, 400 1160" 
        stroke="#cbd5e1" stroke-width="1" stroke-dasharray="none" 
        fill="none" marker-end="url(#arrowhead)"/>
  <path d="M 1100 1000 C 1100 1080, 1800 1080, 1800 1160" 
        stroke="#cbd5e1" stroke-width="1" stroke-dasharray="none" 
        fill="none" marker-end="url(#arrowhead)"/>
  <path d="M 1100 1000 C 1100 1080, 1000 1080, 1000 1160" 
        stroke="#cbd5e1" stroke-width="1" stroke-dasharray="none" 
        fill="none" marker-end="url(#arrowhead)"/>
  <g transform="translate(700, 200)">
    <rect x="-70" y="-27.5" width="140" height="55" rx="6" 
          fill="#eef2ff" stroke="#6366f1" stroke-width="1.5"/>
    <text y="-8" text-anchor="middle" font-family="system-ui" font-size="12" font-weight="600" fill="#1e293b">@lucide/astro</text>
    <text y="14" text-anchor="middle" font-family="monospace" font-size="10" fill="#6366f1">component</text>
  </g>
  <g transform="translate(1700, 360)">
    <rect x="-70" y="-27.5" width="140" height="55" rx="6" 
          fill="#eef2ff" stroke="#6366f1" stroke-width="1.5"/>
    <text y="-8" text-anchor="middle" font-family="system-ui" font-size="12" font-weight="600" fill="#1e293b">@lucide/build-icons</text>
    <text y="14" text-anchor="middle" font-family="monospace" font-size="10" fill="#6366f1">component</text>
  </g>
  <g transform="translate(700, 80)">
    <rect x="-70" y="-27.5" width="140" height="55" rx="6" 
          fill="#eef2ff" stroke="#6366f1" stroke-width="1.5"/>
    <text y="-8" text-anchor="middle" font-family="system-ui" font-size="12" font-weight="600" fill="#1e293b">@lucide/docs</text>
    <text y="14" text-anchor="middle" font-family="monospace" font-size="10" fill="#6366f1">component</text>
  </g>
  <g transform="translate(500, 360)">
    <rect x="-70" y="-27.5" width="140" height="55" rx="6" 
          fill="#eef2ff" stroke="#6366f1" stroke-width="1.5"/>
    <text y="-8" text-anchor="middle" font-family="system-ui" font-size="12" font-weight="600" fill="#1e293b">@lucide/helpers</text>
    <text y="14" text-anchor="middle" font-family="monospace" font-size="10" fill="#6366f1">component</text>
  </g>
  <g transform="translate(500, 80)">
    <rect x="-70" y="-27.5" width="140" height="55" rx="6" 
          fill="#eef2ff" stroke="#6366f1" stroke-width="1.5"/>
    <text y="-8" text-anchor="middle" font-family="system-ui" font-size="12" font-weight="600" fill="#1e293b">@lucide/outline-svg</text>
    <text y="14" text-anchor="middle" font-family="monospace" font-size="10" fill="#6366f1">component</text>
  </g>
  <g transform="translate(900, 360)">
    <rect x="-70" y="-27.5" width="140" height="55" rx="6" 
          fill="#eef2ff" stroke="#6366f1" stroke-width="1.5"/>
    <text y="-8" text-anchor="middle" font-family="system-ui" font-size="12" font-weight="600" fill="#1e293b">@lucide/rollup-plugins</text>
    <text y="14" text-anchor="middle" font-family="monospace" font-size="10" fill="#6366f1">component</text>
  </g>
  <g transform="translate(700, 360)">
    <rect x="-70" y="-27.5" width="140" height="55" rx="6" 
          fill="#eef2ff" stroke="#6366f1" stroke-width="1.5"/>
    <text y="-8" text-anchor="middle" font-family="system-ui" font-size="12" font-weight="600" fill="#1e293b">@lucide/shared</text>
    <text y="14" text-anchor="middle" font-family="monospace" font-size="10" fill="#6366f1">component</text>
  </g>
  <g transform="translate(2100, 80)">
    <rect x="-70" y="-27.5" width="140" height="55" rx="6" 
          fill="#eef2ff" stroke="#6366f1" stroke-width="1.5"/>
    <text y="-8" text-anchor="middle" font-family="system-ui" font-size="12" font-weight="600" fill="#1e293b">@lucide/svelte</text>
    <text y="14" text-anchor="middle" font-family="monospace" font-size="10" fill="#6366f1">component</text>
  </g>
  <g transform="translate(900, 80)">
    <rect x="-70" y="-27.5" width="140" height="55" rx="6" 
          fill="#eef2ff" stroke="#6366f1" stroke-width="1.5"/>
    <text y="-8" text-anchor="middle" font-family="system-ui" font-size="12" font-weight="600" fill="#1e293b">@panzerotti/costs-d...</text>
    <text y="14" text-anchor="middle" font-family="monospace" font-size="10" fill="#6366f1">component</text>
  </g>
  <g transform="translate(1300, 360)">
    <rect x="-70" y="-27.5" width="140" height="55" rx="6" 
          fill="#eef2ff" stroke="#6366f1" stroke-width="1.5"/>
    <text y="-8" text-anchor="middle" font-family="system-ui" font-size="12" font-weight="600" fill="#1e293b">@panzerotti/demo-page</text>
    <text y="14" text-anchor="middle" font-family="monospace" font-size="10" fill="#6366f1">component</text>
  </g>
  <g transform="translate(1100, 360)">
    <rect x="-70" y="-27.5" width="140" height="55" rx="6" 
          fill="#eef2ff" stroke="#6366f1" stroke-width="1.5"/>
    <text y="-8" text-anchor="middle" font-family="system-ui" font-size="12" font-weight="600" fill="#1e293b">@panzerotti/landing...</text>
    <text y="14" text-anchor="middle" font-family="monospace" font-size="10" fill="#6366f1">component</text>
  </g>
  <g transform="translate(2300, 360)">
    <rect x="-70" y="-27.5" width="140" height="55" rx="6" 
          fill="#eef2ff" stroke="#6366f1" stroke-width="1.5"/>
    <text y="-8" text-anchor="middle" font-family="system-ui" font-size="12" font-weight="600" fill="#1e293b">@panzerotti/protect...</text>
    <text y="14" text-anchor="middle" font-family="monospace" font-size="10" fill="#6366f1">component</text>
  </g>
  <g transform="translate(1900, 200)">
    <rect x="-70" y="-27.5" width="140" height="55" rx="6" 
          fill="#eef2ff" stroke="#6366f1" stroke-width="1.5"/>
    <text y="-8" text-anchor="middle" font-family="system-ui" font-size="12" font-weight="600" fill="#1e293b">build-font</text>
    <text y="14" text-anchor="middle" font-family="monospace" font-size="10" fill="#6366f1">component</text>
  </g>
  <g transform="translate(900, 200)">
    <rect x="-70" y="-27.5" width="140" height="55" rx="6" 
          fill="#eef2ff" stroke="#6366f1" stroke-width="1.5"/>
    <text y="-8" text-anchor="middle" font-family="system-ui" font-size="12" font-weight="600" fill="#1e293b">dashboard</text>
    <text y="14" text-anchor="middle" font-family="monospace" font-size="10" fill="#6366f1">component</text>
  </g>
  <g transform="translate(1700, 200)">
    <rect x="-70" y="-27.5" width="140" height="55" rx="6" 
          fill="#eef2ff" stroke="#6366f1" stroke-width="1.5"/>
    <text y="-8" text-anchor="middle" font-family="system-ui" font-size="12" font-weight="600" fill="#1e293b">docs</text>
    <text y="14" text-anchor="middle" font-family="monospace" font-size="10" fill="#6366f1">component</text>
  </g>
  <g transform="translate(1500, 200)">
    <rect x="-70" y="-27.5" width="140" height="55" rx="6" 
          fill="#eef2ff" stroke="#6366f1" stroke-width="1.5"/>
    <text y="-8" text-anchor="middle" font-family="system-ui" font-size="12" font-weight="600" fill="#1e293b">icons</text>
    <text y="14" text-anchor="middle" font-family="monospace" font-size="10" fill="#6366f1">component</text>
  </g>
  <g transform="translate(500, 200)">
    <rect x="-70" y="-27.5" width="140" height="55" rx="6" 
          fill="#eef2ff" stroke="#6366f1" stroke-width="1.5"/>
    <text y="-8" text-anchor="middle" font-family="system-ui" font-size="12" font-weight="600" fill="#1e293b">lucide</text>
    <text y="14" text-anchor="middle" font-family="monospace" font-size="10" fill="#6366f1">component</text>
  </g>
  <g transform="translate(300, 200)">
    <rect x="-70" y="-27.5" width="140" height="55" rx="6" 
          fill="#eef2ff" stroke="#6366f1" stroke-width="1.5"/>
    <text y="-8" text-anchor="middle" font-family="system-ui" font-size="12" font-weight="600" fill="#1e293b">lucide-angular</text>
    <text y="14" text-anchor="middle" font-family="monospace" font-size="10" fill="#6366f1">component</text>
  </g>
  <g transform="translate(1100, 80)">
    <rect x="-70" y="-27.5" width="140" height="55" rx="6" 
          fill="#eef2ff" stroke="#6366f1" stroke-width="1.5"/>
    <text y="-8" text-anchor="middle" font-family="system-ui" font-size="12" font-weight="600" fill="#1e293b">lucide-preact</text>
    <text y="14" text-anchor="middle" font-family="monospace" font-size="10" fill="#6366f1">component</text>
  </g>
  <g transform="translate(1900, 360)">
    <rect x="-70" y="-27.5" width="140" height="55" rx="6" 
          fill="#eef2ff" stroke="#6366f1" stroke-width="1.5"/>
    <text y="-8" text-anchor="middle" font-family="system-ui" font-size="12" font-weight="600" fill="#1e293b">lucide-react</text>
    <text y="14" text-anchor="middle" font-family="monospace" font-size="10" fill="#6366f1">component</text>
  </g>
  <g transform="translate(1100, 200)">
    <rect x="-70" y="-27.5" width="140" height="55" rx="6" 
          fill="#eef2ff" stroke="#6366f1" stroke-width="1.5"/>
    <text y="-8" text-anchor="middle" font-family="system-ui" font-size="12" font-weight="600" fill="#1e293b">lucide-react-native</text>
    <text y="14" text-anchor="middle" font-family="monospace" font-size="10" fill="#6366f1">component</text>
  </g>
  <g transform="translate(1900, 80)">
    <rect x="-70" y="-27.5" width="140" height="55" rx="6" 
          fill="#eef2ff" stroke="#6366f1" stroke-width="1.5"/>
    <text y="-8" text-anchor="middle" font-family="system-ui" font-size="12" font-weight="600" fill="#1e293b">lucide-solid</text>
    <text y="14" text-anchor="middle" font-family="monospace" font-size="10" fill="#6366f1">component</text>
  </g>
  <g transform="translate(1500, 360)">
    <rect x="-70" y="-27.5" width="140" height="55" rx="6" 
          fill="#eef2ff" stroke="#6366f1" stroke-width="1.5"/>
    <text y="-8" text-anchor="middle" font-family="system-ui" font-size="12" font-weight="600" fill="#1e293b">lucide-static</text>
    <text y="14" text-anchor="middle" font-family="monospace" font-size="10" fill="#6366f1">component</text>
  </g>
  <g transform="translate(1700, 80)">
    <rect x="-70" y="-27.5" width="140" height="55" rx="6" 
          fill="#eef2ff" stroke="#6366f1" stroke-width="1.5"/>
    <text y="-8" text-anchor="middle" font-family="system-ui" font-size="12" font-weight="600" fill="#1e293b">lucide-svelte</text>
    <text y="14" text-anchor="middle" font-family="monospace" font-size="10" fill="#6366f1">component</text>
  </g>
  <g transform="translate(2300, 80)">
    <rect x="-70" y="-27.5" width="140" height="55" rx="6" 
          fill="#eef2ff" stroke="#6366f1" stroke-width="1.5"/>
    <text y="-8" text-anchor="middle" font-family="system-ui" font-size="12" font-weight="600" fill="#1e293b">lucide-vue</text>
    <text y="14" text-anchor="middle" font-family="monospace" font-size="10" fill="#6366f1">component</text>
  </g>
  <g transform="translate(100, 360)">
    <rect x="-70" y="-27.5" width="140" height="55" rx="6" 
          fill="#eef2ff" stroke="#6366f1" stroke-width="1.5"/>
    <text y="-8" text-anchor="middle" font-family="system-ui" font-size="12" font-weight="600" fill="#1e293b">lucide-vue-next</text>
    <text y="14" text-anchor="middle" font-family="monospace" font-size="10" fill="#6366f1">component</text>
  </g>
  <g transform="translate(300, 80)">
    <rect x="-70" y="-27.5" width="140" height="55" rx="6" 
          fill="#eef2ff" stroke="#6366f1" stroke-width="1.5"/>
    <text y="-8" text-anchor="middle" font-family="system-ui" font-size="12" font-weight="600" fill="#1e293b">panzerotti</text>
    <text y="14" text-anchor="middle" font-family="monospace" font-size="10" fill="#6366f1">component</text>
  </g>
  <g transform="translate(1500, 80)">
    <rect x="-70" y="-27.5" width="140" height="55" rx="6" 
          fill="#eef2ff" stroke="#6366f1" stroke-width="1.5"/>
    <text y="-8" text-anchor="middle" font-family="system-ui" font-size="12" font-weight="600" fill="#1e293b">peaceful-planet</text>
    <text y="14" text-anchor="middle" font-family="monospace" font-size="10" fill="#6366f1">component</text>
  </g>
  <g transform="translate(2100, 200)">
    <rect x="-70" y="-27.5" width="140" height="55" rx="6" 
          fill="#eef2ff" stroke="#6366f1" stroke-width="1.5"/>
    <text y="-8" text-anchor="middle" font-family="system-ui" font-size="12" font-weight="600" fill="#1e293b">pitch-deck</text>
    <text y="14" text-anchor="middle" font-family="monospace" font-size="10" fill="#6366f1">component</text>
  </g>
  <g transform="translate(1300, 80)">
    <rect x="-70" y="-27.5" width="140" height="55" rx="6" 
          fill="#eef2ff" stroke="#6366f1" stroke-width="1.5"/>
    <text y="-8" text-anchor="middle" font-family="system-ui" font-size="12" font-weight="600" fill="#1e293b">tests-e2e</text>
    <text y="14" text-anchor="middle" font-family="monospace" font-size="10" fill="#6366f1">component</text>
  </g>
  <g transform="translate(1300, 200)">
    <rect x="-70" y="-27.5" width="140" height="55" rx="6" 
          fill="#eef2ff" stroke="#6366f1" stroke-width="1.5"/>
    <text y="-8" text-anchor="middle" font-family="system-ui" font-size="12" font-weight="600" fill="#1e293b">tests-init</text>
    <text y="14" text-anchor="middle" font-family="monospace" font-size="10" fill="#6366f1">component</text>
  </g>
  <g transform="translate(2100, 360)">
    <rect x="-70" y="-27.5" width="140" height="55" rx="6" 
          fill="#eef2ff" stroke="#6366f1" stroke-width="1.5"/>
    <text y="-8" text-anchor="middle" font-family="system-ui" font-size="12" font-weight="600" fill="#1e293b">vitepress</text>
    <text y="14" text-anchor="middle" font-family="monospace" font-size="10" fill="#6366f1">component</text>
  </g>
  <g transform="translate(100, 80)">
    <rect x="-70" y="-27.5" width="140" height="55" rx="6" 
          fill="#f8fafc" stroke="#64748b" stroke-width="1.5"/>
    <text y="-8" text-anchor="middle" font-family="system-ui" font-size="12" font-weight="600" fill="#1e293b">3rdparty</text>
    <text y="14" text-anchor="middle" font-family="monospace" font-size="10" fill="#64748b">directory</text>
  </g>
  <g transform="translate(300, 360)">
    <rect x="-70" y="-27.5" width="140" height="55" rx="6" 
          fill="#f8fafc" stroke="#64748b" stroke-width="1.5"/>
    <text y="-8" text-anchor="middle" font-family="system-ui" font-size="12" font-weight="600" fill="#1e293b">lucide</text>
    <text y="14" text-anchor="middle" font-family="monospace" font-size="10" fill="#64748b">directory</text>
  </g>
  <g transform="translate(1300, 520)">
    <rect x="-70" y="-27.5" width="140" height="55" rx="6" 
          fill="#f8fafc" stroke="#64748b" stroke-width="1.5"/>
    <text y="-8" text-anchor="middle" font-family="system-ui" font-size="12" font-weight="600" fill="#1e293b">categories</text>
    <text y="14" text-anchor="middle" font-family="monospace" font-size="10" fill="#64748b">directory</text>
  </g>
  <g transform="translate(1100, 520)">
    <rect x="-70" y="-27.5" width="140" height="55" rx="6" 
          fill="#f8fafc" stroke="#64748b" stroke-width="1.5"/>
    <text y="-8" text-anchor="middle" font-family="system-ui" font-size="12" font-weight="600" fill="#1e293b">docs</text>
    <text y="14" text-anchor="middle" font-family="monospace" font-size="10" fill="#64748b">directory</text>
  </g>
  <g transform="translate(1200, 680)">
    <rect x="-70" y="-27.5" width="140" height="55" rx="6" 
          fill="#f8fafc" stroke="#64748b" stroke-width="1.5"/>
    <text y="-8" text-anchor="middle" font-family="system-ui" font-size="12" font-weight="600" fill="#1e293b">guide</text>
    <text y="14" text-anchor="middle" font-family="monospace" font-size="10" fill="#64748b">directory</text>
  </g>
  <g transform="translate(1300, 840)">
    <rect x="-70" y="-27.5" width="140" height="55" rx="6" 
          fill="#f8fafc" stroke="#64748b" stroke-width="1.5"/>
    <text y="-8" text-anchor="middle" font-family="system-ui" font-size="12" font-weight="600" fill="#1e293b">advanced</text>
    <text y="14" text-anchor="middle" font-family="monospace" font-size="10" fill="#64748b">directory</text>
  </g>
  <g transform="translate(1300, 1000)">
    <rect x="-70" y="-27.5" width="140" height="55" rx="6" 
          fill="#f8fafc" stroke="#64748b" stroke-width="1.5"/>
    <text y="-8" text-anchor="middle" font-family="system-ui" font-size="12" font-weight="600" fill="#1e293b">examples</text>
    <text y="14" text-anchor="middle" font-family="monospace" font-size="10" fill="#64748b">directory</text>
  </g>
  <g transform="translate(1200, 1160)">
    <rect x="-70" y="-27.5" width="140" height="55" rx="6" 
          fill="#f8fafc" stroke="#64748b" stroke-width="1.5"/>
    <text y="-8" text-anchor="middle" font-family="system-ui" font-size="12" font-weight="600" fill="#1e293b">filled-icon-example</text>
    <text y="14" text-anchor="middle" font-family="monospace" font-size="10" fill="#64748b">directory</text>
  </g>
  <g transform="translate(1600, 1160)">
    <rect x="-70" y="-27.5" width="140" height="55" rx="6" 
          fill="#f8fafc" stroke="#64748b" stroke-width="1.5"/>
    <text y="-8" text-anchor="middle" font-family="system-ui" font-size="12" font-weight="600" fill="#1e293b">global-styling-abso...</text>
    <text y="14" text-anchor="middle" font-family="monospace" font-size="10" fill="#64748b">directory</text>
  </g>
  <g transform="translate(800, 1160)">
    <rect x="-70" y="-27.5" width="140" height="55" rx="6" 
          fill="#f8fafc" stroke="#64748b" stroke-width="1.5"/>
    <text y="-8" text-anchor="middle" font-family="system-ui" font-size="12" font-weight="600" fill="#1e293b">global-styling-css-...</text>
    <text y="14" text-anchor="middle" font-family="monospace" font-size="10" fill="#64748b">directory</text>
  </g>
  <g transform="translate(1100, 840)">
    <rect x="-70" y="-27.5" width="140" height="55" rx="6" 
          fill="#f8fafc" stroke="#64748b" stroke-width="1.5"/>
    <text y="-8" text-anchor="middle" font-family="system-ui" font-size="12" font-weight="600" fill="#1e293b">basics</text>
    <text y="14" text-anchor="middle" font-family="monospace" font-size="10" fill="#64748b">directory</text>
  </g>
  <g transform="translate(1100, 1000)">
    <rect x="-70" y="-27.5" width="140" height="55" rx="6" 
          fill="#f8fafc" stroke="#64748b" stroke-width="1.5"/>
    <text y="-8" text-anchor="middle" font-family="system-ui" font-size="12" font-weight="600" fill="#1e293b">examples</text>
    <text y="14" text-anchor="middle" font-family="monospace" font-size="10" fill="#64748b">directory</text>
  </g>
  <g transform="translate(600, 1160)">
    <rect x="-70" y="-27.5" width="140" height="55" rx="6" 
          fill="#f8fafc" stroke="#64748b" stroke-width="1.5"/>
    <text y="-8" text-anchor="middle" font-family="system-ui" font-size="12" font-weight="600" fill="#1e293b">absolute-stroke-wid...</text>
    <text y="14" text-anchor="middle" font-family="monospace" font-size="10" fill="#64748b">directory</text>
  </g>
  <g transform="translate(1400, 1160)">
    <rect x="-70" y="-27.5" width="140" height="55" rx="6" 
          fill="#f8fafc" stroke="#64748b" stroke-width="1.5"/>
    <text y="-8" text-anchor="middle" font-family="system-ui" font-size="12" font-weight="600" fill="#1e293b">button-example</text>
    <text y="14" text-anchor="middle" font-family="monospace" font-size="10" fill="#64748b">directory</text>
  </g>
  <g transform="translate(2000, 1160)">
    <rect x="-70" y="-27.5" width="140" height="55" rx="6" 
          fill="#f8fafc" stroke="#64748b" stroke-width="1.5"/>
    <text y="-8" text-anchor="middle" font-family="system-ui" font-size="12" font-weight="600" fill="#1e293b">color-icon</text>
    <text y="14" text-anchor="middle" font-family="monospace" font-size="10" fill="#64748b">directory</text>
  </g>
  <g transform="translate(400, 1160)">
    <rect x="-70" y="-27.5" width="140" height="55" rx="6" 
          fill="#f8fafc" stroke="#64748b" stroke-width="1.5"/>
    <text y="-8" text-anchor="middle" font-family="system-ui" font-size="12" font-weight="600" fill="#1e293b">size-icon-css-example</text>
    <text y="14" text-anchor="middle" font-family="monospace" font-size="10" fill="#64748b">directory</text>
  </g>
  <g transform="translate(1800, 1160)">
    <rect x="-70" y="-27.5" width="140" height="55" rx="6" 
          fill="#f8fafc" stroke="#64748b" stroke-width="1.5"/>
    <text y="-8" text-anchor="middle" font-family="system-ui" font-size="12" font-weight="600" fill="#1e293b">size-icon-example</text>
    <text y="14" text-anchor="middle" font-family="monospace" font-size="10" fill="#64748b">directory</text>
  </g>
  <g transform="translate(1000, 1160)">
    <rect x="-70" y="-27.5" width="140" height="55" rx="6" 
          fill="#f8fafc" stroke="#64748b" stroke-width="1.5"/>
    <text y="-8" text-anchor="middle" font-family="system-ui" font-size="12" font-weight="600" fill="#1e293b">size-icon-font-example</text>
    <text y="14" text-anchor="middle" font-family="monospace" font-size="10" fill="#64748b">directory</text>
  </g>
  </g>
  <script type="text/javascript">
    <![CDATA[
    (function() {
      const svg = document.getElementById('chizu-svg');
      const viewport = document.getElementById('viewport');
      let isPanning = false;
      let startPoint = { x: 0, y: 0 };
      let currentTranslate = { x: 0, y: 0 };
      let scale = 1;
      
      // Get point in SVG coordinates
      function getSVGPoint(clientX, clientY) {
        const point = svg.createSVGPoint();
        point.x = clientX;
        point.y = clientY;
        return point.matrixTransform(viewport.getCTM().inverse());
      }
      
      // Mouse wheel zoom
      svg.addEventListener('wheel', function(e) {
        e.preventDefault();
        const delta = e.deltaY > 0 ? 0.9 : 1.1;
        const newScale = Math.max(0.1, Math.min(5, scale * delta));
        
        // Zoom towards mouse pointer
        const mousePos = getSVGPoint(e.clientX, e.clientY);
        currentTranslate.x += mousePos.x * (1 - delta);
        currentTranslate.y += mousePos.y * (1 - delta);
        scale = newScale;
        
        viewport.setAttribute('transform', 'translate(' + currentTranslate.x + ',' + currentTranslate.y + ') scale(' + scale + ')');
      }, { passive: false });
      
      // Pan with mouse drag
      svg.addEventListener('mousedown', function(e) {
        isPanning = true;
        startPoint = { x: e.clientX, y: e.clientY };
        svg.style.cursor = 'grabbing';
      });
      
      window.addEventListener('mousemove', function(e) {
        if (!isPanning) return;
        const dx = (e.clientX - startPoint.x) / scale;
        const dy = (e.clientY - startPoint.y) / scale;
        currentTranslate.x += dx;
        currentTranslate.y += dy;
        startPoint = { x: e.clientX, y: e.clientY };
        viewport.setAttribute('transform', 'translate(' + currentTranslate.x + ',' + currentTranslate.y + ') scale(' + scale + ')');
      });
      
      window.addEventListener('mouseup', function() {
        isPanning = false;
        svg.style.cursor = 'grab';
      });
      
      // Reset on double click
      svg.addEventListener('dblclick', function() {
        currentTranslate = { x: 0, y: 0 };
        scale = 1;
        viewport.setAttribute('transform', 'translate(0,0) scale(1)');
      });
    })();
    ]]>
  </script>
</svg>
