<svg xmlns="http://www.w3.org/2000/svg" viewBox="0 0 1200 1720" font-family="system-ui, -apple-system, sans-serif">
  <defs>
    <marker id="arr-gray" markerWidth="8" markerHeight="6" refX="7" refY="3" orient="auto">
      <polygon points="0 0, 8 3, 0 6" fill="#94a3b8"/>
    </marker>
    <marker id="arr-blue" markerWidth="8" markerHeight="6" refX="7" refY="3" orient="auto">
      <polygon points="0 0, 8 3, 0 6" fill="#3b82f6"/>
    </marker>
    <marker id="arr-orange" markerWidth="8" markerHeight="6" refX="7" refY="3" orient="auto">
      <polygon points="0 0, 8 3, 0 6" fill="#ea580c"/>
    </marker>
    <marker id="arr-green" markerWidth="8" markerHeight="6" refX="7" refY="3" orient="auto">
      <polygon points="0 0, 8 3, 0 6" fill="#059669"/>
    </marker>
    <marker id="arr-violet" markerWidth="8" markerHeight="6" refX="7" refY="3" orient="auto">
      <polygon points="0 0, 8 3, 0 6" fill="#7c3aed"/>
    </marker>
    <marker id="arr-rose" markerWidth="8" markerHeight="6" refX="7" refY="3" orient="auto">
      <polygon points="0 0, 8 3, 0 6" fill="#e11d48"/>
    </marker>
  </defs>

  <!-- Canvas -->
  <rect width="1200" height="1720" fill="#fafafa"/>

  <!-- ================================================================ -->
  <!-- TITLE                                                            -->
  <!-- ================================================================ -->
  <text x="600" y="38" text-anchor="middle" font-family="monospace" font-size="20" font-weight="bold" fill="#1e293b">Code Knowledge Graph</text>
  <text x="600" y="58" text-anchor="middle" font-size="12" fill="#94a3b8">How chizu maps a codebase into a navigable graph for AI agents</text>

  <!-- ================================================================ -->
  <!-- SECTION 1: THE GRAPH                                             -->
  <!-- ================================================================ -->
  <g transform="translate(40, 80)">
    <rect width="1120" height="580" fill="#ffffff" stroke="#e2e8f0" stroke-width="1" rx="8"/>
    <rect width="1120" height="4" fill="#1e293b" y="0" rx="2"/>
    <text x="20" y="28" font-family="monospace" font-size="13" font-weight="bold" fill="#1e293b">The Graph Structure</text>
    <text x="20" y="44" font-size="10" fill="#94a3b8">Every Rust workspace maps to a hierarchical graph of entities connected by typed edges</text>

    <!-- Row labels (left side) -->
    <text x="12" y="98" font-size="9" font-weight="bold" fill="#94a3b8" transform="rotate(-90, 12, 98)" text-anchor="end">REPO</text>
    <text x="12" y="220" font-size="9" font-weight="bold" fill="#94a3b8" transform="rotate(-90, 12, 220)" text-anchor="end">COMPONENTS</text>
    <text x="12" y="348" font-size="9" font-weight="bold" fill="#94a3b8" transform="rotate(-90, 12, 348)" text-anchor="end">SOURCE UNITS</text>
    <text x="12" y="478" font-size="9" font-weight="bold" fill="#94a3b8" transform="rotate(-90, 12, 478)" text-anchor="end">SYMBOLS</text>

    <!-- ── Repo node ── -->
    <g transform="translate(420, 72)">
      <rect width="280" height="48" fill="#ffffff" stroke="#d97706" stroke-width="1.5" rx="6"/>
      <rect width="280" height="4" fill="#d97706" y="0" rx="2"/>
      <circle cx="20" cy="28" r="6" fill="#fef3c7" stroke="#d97706" stroke-width="1"/>
      <text x="34" y="24" font-family="monospace" font-size="11" font-weight="bold" fill="#d97706">repo::acme-app</text>
      <text x="34" y="38" font-size="9" fill="#94a3b8">Rust workspace root</text>
    </g>

    <!-- Repo → Component edges (contains) -->
    <line x1="480" y1="120" x2="210" y2="180" stroke="#3b82f6" stroke-width="1.5" marker-end="url(#arr-blue)"/>
    <line x1="560" y1="120" x2="560" y2="180" stroke="#3b82f6" stroke-width="1.5" marker-end="url(#arr-blue)"/>
    <line x1="640" y1="120" x2="910" y2="180" stroke="#3b82f6" stroke-width="1.5" marker-end="url(#arr-blue)"/>

    <!-- "contains" edge label -->
    <rect x="520" y="140" width="80" height="18" fill="#fafafa" stroke="#3b82f6" stroke-width="0.5" rx="9"/>
    <text x="560" y="153" text-anchor="middle" font-family="monospace" font-size="9" fill="#3b82f6">contains</text>

    <!-- ── Component nodes ── -->
    <!-- acme-api -->
    <g transform="translate(70, 184)">
      <rect width="260" height="48" fill="#ffffff" stroke="#3b82f6" stroke-width="1.5" rx="6"/>
      <rect width="260" height="4" fill="#3b82f6" y="0" rx="2"/>
      <circle cx="20" cy="28" r="6" fill="#dbeafe" stroke="#3b82f6" stroke-width="1"/>
      <text x="34" y="24" font-family="monospace" font-size="11" font-weight="bold" fill="#3b82f6">component::acme-api</text>
      <text x="34" y="38" font-size="9" fill="#94a3b8">HTTP API server</text>
    </g>

    <!-- acme-core -->
    <g transform="translate(430, 184)">
      <rect width="260" height="48" fill="#ffffff" stroke="#3b82f6" stroke-width="1.5" rx="6"/>
      <rect width="260" height="4" fill="#3b82f6" y="0" rx="2"/>
      <circle cx="20" cy="28" r="6" fill="#dbeafe" stroke="#3b82f6" stroke-width="1"/>
      <text x="34" y="24" font-family="monospace" font-size="11" font-weight="bold" fill="#3b82f6">component::acme-core</text>
      <text x="34" y="38" font-size="9" fill="#94a3b8">shared business logic</text>
    </g>

    <!-- acme-web -->
    <g transform="translate(790, 184)">
      <rect width="260" height="48" fill="#ffffff" stroke="#3b82f6" stroke-width="1.5" rx="6"/>
      <rect width="260" height="4" fill="#3b82f6" y="0" rx="2"/>
      <circle cx="20" cy="28" r="6" fill="#dbeafe" stroke="#3b82f6" stroke-width="1"/>
      <text x="34" y="24" font-family="monospace" font-size="11" font-weight="bold" fill="#3b82f6">component::acme-web</text>
      <text x="34" y="38" font-size="9" fill="#94a3b8">web frontend</text>
    </g>

    <!-- DependsOn edges (dashed orange) -->
    <!-- api → core -->
    <path d="M 330,218 C 380,250 430,250 440,218" fill="none" stroke="#ea580c" stroke-width="1.5" stroke-dasharray="5,3" marker-end="url(#arr-orange)"/>
    <!-- web → core -->
    <path d="M 800,218 C 750,250 700,250 688,218" fill="none" stroke="#ea580c" stroke-width="1.5" stroke-dasharray="5,3" marker-end="url(#arr-orange)"/>

    <rect x="345" y="243" width="90" height="16" fill="#fafafa" stroke="#ea580c" stroke-width="0.5" rx="8"/>
    <text x="390" y="254" text-anchor="middle" font-family="monospace" font-size="8" fill="#ea580c">depends_on</text>
    <rect x="695" y="243" width="90" height="16" fill="#fafafa" stroke="#ea580c" stroke-width="0.5" rx="8"/>
    <text x="740" y="254" text-anchor="middle" font-family="monospace" font-size="8" fill="#ea580c">depends_on</text>

    <!-- Component → SourceUnit edges -->
    <line x1="150" y1="232" x2="110" y2="310" stroke="#3b82f6" stroke-width="1" marker-end="url(#arr-blue)"/>
    <line x1="250" y1="232" x2="290" y2="310" stroke="#3b82f6" stroke-width="1" marker-end="url(#arr-blue)"/>
    <line x1="520" y1="232" x2="480" y2="310" stroke="#3b82f6" stroke-width="1" marker-end="url(#arr-blue)"/>
    <line x1="600" y1="232" x2="660" y2="310" stroke="#3b82f6" stroke-width="1" marker-end="url(#arr-blue)"/>
    <line x1="880" y1="232" x2="860" y2="310" stroke="#3b82f6" stroke-width="1" marker-end="url(#arr-blue)"/>
    <line x1="960" y1="232" x2="1030" y2="310" stroke="#3b82f6" stroke-width="1" marker-end="url(#arr-blue)"/>

    <!-- ── Source Unit nodes ── -->
    <!-- api/routes.rs -->
    <g transform="translate(30, 314)">
      <rect width="170" height="40" fill="#ffffff" stroke="#059669" stroke-width="1.5" rx="5"/>
      <rect width="170" height="3" fill="#059669" y="0" rx="2"/>
      <circle cx="14" cy="24" r="5" fill="#d1fae5" stroke="#059669" stroke-width="1"/>
      <text x="26" y="21" font-family="monospace" font-size="10" font-weight="bold" fill="#059669">routes.rs</text>
      <text x="26" y="33" font-size="8" fill="#94a3b8">api/src/routes.rs</text>
    </g>
    <!-- api/middleware.rs -->
    <g transform="translate(220, 314)">
      <rect width="170" height="40" fill="#ffffff" stroke="#059669" stroke-width="1" rx="5"/>
      <rect width="170" height="3" fill="#059669" y="0" rx="2"/>
      <circle cx="14" cy="24" r="5" fill="#d1fae5" stroke="#059669" stroke-width="1"/>
      <text x="26" y="21" font-family="monospace" font-size="10" font-weight="bold" fill="#059669">middleware.rs</text>
      <text x="26" y="33" font-size="8" fill="#94a3b8">api/src/middleware.rs</text>
    </g>
    <!-- core/engine.rs -->
    <g transform="translate(400, 314)">
      <rect width="170" height="40" fill="#ffffff" stroke="#059669" stroke-width="1" rx="5"/>
      <rect width="170" height="3" fill="#059669" y="0" rx="2"/>
      <circle cx="14" cy="24" r="5" fill="#d1fae5" stroke="#059669" stroke-width="1"/>
      <text x="26" y="21" font-family="monospace" font-size="10" font-weight="bold" fill="#059669">engine.rs</text>
      <text x="26" y="33" font-size="8" fill="#94a3b8">core/src/engine.rs</text>
    </g>
    <!-- core/types.rs -->
    <g transform="translate(590, 314)">
      <rect width="170" height="40" fill="#ffffff" stroke="#059669" stroke-width="1" rx="5"/>
      <rect width="170" height="3" fill="#059669" y="0" rx="2"/>
      <circle cx="14" cy="24" r="5" fill="#d1fae5" stroke="#059669" stroke-width="1"/>
      <text x="26" y="21" font-family="monospace" font-size="10" font-weight="bold" fill="#059669">types.rs</text>
      <text x="26" y="33" font-size="8" fill="#94a3b8">core/src/types.rs</text>
    </g>
    <!-- web/app.rs -->
    <g transform="translate(780, 314)">
      <rect width="170" height="40" fill="#ffffff" stroke="#059669" stroke-width="1" rx="5"/>
      <rect width="170" height="3" fill="#059669" y="0" rx="2"/>
      <circle cx="14" cy="24" r="5" fill="#d1fae5" stroke="#059669" stroke-width="1"/>
      <text x="26" y="21" font-family="monospace" font-size="10" font-weight="bold" fill="#059669">app.rs</text>
      <text x="26" y="33" font-size="8" fill="#94a3b8">web/src/app.rs</text>
    </g>
    <!-- web/handlers.rs -->
    <g transform="translate(970, 314)">
      <rect width="130" height="40" fill="#ffffff" stroke="#059669" stroke-width="1" rx="5"/>
      <rect width="130" height="3" fill="#059669" y="0" rx="2"/>
      <circle cx="14" cy="24" r="5" fill="#d1fae5" stroke="#059669" stroke-width="1"/>
      <text x="26" y="21" font-family="monospace" font-size="10" font-weight="bold" fill="#059669">handlers.rs</text>
      <text x="26" y="33" font-size="8" fill="#94a3b8">web/src/</text>
    </g>

    <!-- "contains" label for this tier -->
    <rect x="520" y="272" width="80" height="16" fill="#fafafa" stroke="#3b82f6" stroke-width="0.5" rx="8"/>
    <text x="560" y="283" text-anchor="middle" font-family="monospace" font-size="8" fill="#3b82f6">contains</text>

    <!-- SourceUnit → Symbol edges (defines) — only show for routes.rs and engine.rs -->
    <line x1="70" y1="354" x2="55" y2="430" stroke="#059669" stroke-width="1" marker-end="url(#arr-green)"/>
    <line x1="115" y1="354" x2="200" y2="430" stroke="#059669" stroke-width="1" marker-end="url(#arr-green)"/>
    <line x1="160" y1="354" x2="345" y2="430" stroke="#059669" stroke-width="1" marker-end="url(#arr-green)"/>
    <line x1="485" y1="354" x2="510" y2="430" stroke="#059669" stroke-width="1" marker-end="url(#arr-green)"/>
    <line x1="530" y1="354" x2="660" y2="430" stroke="#059669" stroke-width="1" marker-end="url(#arr-green)"/>

    <!-- "defines" label -->
    <rect x="130" y="390" width="66" height="16" fill="#fafafa" stroke="#059669" stroke-width="0.5" rx="8"/>
    <text x="163" y="401" text-anchor="middle" font-family="monospace" font-size="8" fill="#059669">defines</text>

    <!-- Ellipsis for other source units -->
    <text x="330" y="392" font-size="12" fill="#cbd5e1">...</text>
    <text x="860" y="392" font-size="12" fill="#cbd5e1">...</text>

    <!-- ── Symbol nodes ── -->
    <!-- handle_request (Function) -->
    <g transform="translate(30, 434)">
      <rect width="150" height="36" fill="#ffffff" stroke="#7c3aed" stroke-width="1.5" rx="4"/>
      <rect width="150" height="3" fill="#7c3aed" y="0" rx="2"/>
      <text x="8" y="15" font-size="8" font-weight="bold" fill="#7c3aed">fn</text>
      <text x="24" y="15" font-family="monospace" font-size="9" fill="#1e293b">handle_request</text>
      <text x="8" y="28" font-size="8" fill="#94a3b8">pub  ·  lines 12–45</text>
    </g>
    <!-- authenticate (Function) -->
    <g transform="translate(195, 434)">
      <rect width="130" height="36" fill="#ffffff" stroke="#7c3aed" stroke-width="1" rx="4"/>
      <rect width="130" height="3" fill="#7c3aed" y="0" rx="2"/>
      <text x="8" y="15" font-size="8" font-weight="bold" fill="#7c3aed">fn</text>
      <text x="24" y="15" font-family="monospace" font-size="9" fill="#1e293b">authenticate</text>
      <text x="8" y="28" font-size="8" fill="#94a3b8">pub  ·  lines 48–72</text>
    </g>
    <!-- Router (Struct) -->
    <g transform="translate(340, 434)">
      <rect width="120" height="36" fill="#ffffff" stroke="#7c3aed" stroke-width="1" rx="4"/>
      <rect width="120" height="3" fill="#7c3aed" y="0" rx="2"/>
      <text x="8" y="15" font-size="8" font-weight="bold" fill="#7c3aed">struct</text>
      <text x="40" y="15" font-family="monospace" font-size="9" fill="#1e293b">Router</text>
      <text x="8" y="28" font-size="8" fill="#94a3b8">pub  ·  lines 1–10</text>
    </g>
    <!-- Engine (Struct) -->
    <g transform="translate(490, 434)">
      <rect width="120" height="36" fill="#ffffff" stroke="#7c3aed" stroke-width="1" rx="4"/>
      <rect width="120" height="3" fill="#7c3aed" y="0" rx="2"/>
      <text x="8" y="15" font-size="8" font-weight="bold" fill="#7c3aed">struct</text>
      <text x="40" y="15" font-family="monospace" font-size="9" fill="#1e293b">Engine</text>
      <text x="8" y="28" font-size="8" fill="#94a3b8">pub  ·  lines 5–80</text>
    </g>
    <!-- Config (Struct) -->
    <g transform="translate(630, 434)">
      <rect width="120" height="36" fill="#ffffff" stroke="#7c3aed" stroke-width="1" rx="4"/>
      <rect width="120" height="3" fill="#7c3aed" y="0" rx="2"/>
      <text x="8" y="15" font-size="8" font-weight="bold" fill="#7c3aed">struct</text>
      <text x="40" y="15" font-family="monospace" font-size="9" fill="#1e293b">Config</text>
      <text x="8" y="28" font-size="8" fill="#94a3b8">pub  ·  lines 82–95</text>
    </g>
    <!-- Test node -->
    <g transform="translate(780, 434)">
      <rect width="150" height="36" fill="#ffffff" stroke="#e11d48" stroke-width="1" rx="4"/>
      <rect width="150" height="3" fill="#e11d48" y="0" rx="2"/>
      <text x="8" y="15" font-size="8" font-weight="bold" fill="#e11d48">#[test]</text>
      <text x="46" y="15" font-family="monospace" font-size="9" fill="#1e293b">test_engine</text>
      <text x="8" y="28" font-size="8" fill="#94a3b8">lines 100–115</text>
    </g>
    <!-- Ellipsis -->
    <text x="960" y="456" font-size="12" fill="#cbd5e1">... 90+ more symbols</text>

    <!-- ── Legend ── -->
    <g transform="translate(30, 500)">
      <rect width="1060" height="56" fill="#fafafa" stroke="#e2e8f0" stroke-width="0.5" rx="4"/>
      <text x="15" y="18" font-size="9" font-weight="bold" fill="#64748b">LEGEND</text>

      <circle cx="15" cy="38" r="5" fill="#fef3c7" stroke="#d97706" stroke-width="1"/>
      <text x="26" y="42" font-size="9" fill="#64748b">Repo</text>
      <circle cx="90" cy="38" r="5" fill="#dbeafe" stroke="#3b82f6" stroke-width="1"/>
      <text x="101" y="42" font-size="9" fill="#64748b">Component</text>
      <circle cx="200" cy="38" r="5" fill="#d1fae5" stroke="#059669" stroke-width="1"/>
      <text x="211" y="42" font-size="9" fill="#64748b">SourceUnit</text>
      <circle cx="310" cy="38" r="5" fill="#ede9fe" stroke="#7c3aed" stroke-width="1"/>
      <text x="321" y="42" font-size="9" fill="#64748b">Symbol</text>
      <circle cx="400" cy="38" r="5" fill="#ffe4e6" stroke="#e11d48" stroke-width="1"/>
      <text x="411" y="42" font-size="9" fill="#64748b">Test</text>

      <line x1="490" y1="38" x2="516" y2="38" stroke="#3b82f6" stroke-width="1.5" marker-end="url(#arr-blue)"/>
      <text x="525" y="42" font-size="9" fill="#64748b">contains</text>
      <line x1="600" y1="38" x2="626" y2="38" stroke="#059669" stroke-width="1.5" marker-end="url(#arr-green)"/>
      <text x="635" y="42" font-size="9" fill="#64748b">defines</text>
      <line x1="700" y1="38" x2="726" y2="38" stroke="#ea580c" stroke-width="1.5" stroke-dasharray="4,2" marker-end="url(#arr-orange)"/>
      <text x="735" y="42" font-size="9" fill="#64748b">depends_on</text>

      <text x="850" y="42" font-size="9" fill="#94a3b8">Each entity stores: name, kind, path, lines, visibility</text>
    </g>
  </g>

  <!-- ================================================================ -->
  <!-- SECTION 2: DATA LAYERS                                           -->
  <!-- ================================================================ -->
  <g transform="translate(40, 690)">
    <rect width="1120" height="148" fill="#ffffff" stroke="#e2e8f0" stroke-width="1" rx="8"/>
    <rect width="1120" height="4" fill="#64748b" y="0" rx="2"/>
    <text x="20" y="28" font-family="monospace" font-size="13" font-weight="bold" fill="#1e293b">Attached Data</text>
    <text x="20" y="44" font-size="10" fill="#94a3b8">Each entity can carry additional data that agents read during navigation</text>

    <!-- FileRecord -->
    <g transform="translate(20, 60)">
      <rect width="250" height="68" fill="#fafafa" stroke="#e2e8f0" stroke-width="1" rx="4"/>
      <text x="12" y="20" font-family="monospace" font-size="11" font-weight="bold" fill="#1e293b">FileRecord</text>
      <text x="12" y="36" font-size="9" fill="#64748b">sha256 content hash per file</text>
      <text x="12" y="52" font-size="9" fill="#94a3b8">enables incremental re-indexing —</text>
      <text x="12" y="62" font-size="9" fill="#94a3b8">skip unchanged files on re-run</text>
    </g>

    <!-- Summary -->
    <g transform="translate(290, 60)">
      <rect width="250" height="68" fill="#fafafa" stroke="#e2e8f0" stroke-width="1" rx="4"/>
      <text x="12" y="20" font-family="monospace" font-size="11" font-weight="bold" fill="#1e293b">Summary</text>
      <text x="12" y="36" font-size="9" fill="#64748b">AI-generated description + keywords</text>
      <text x="12" y="52" font-size="9" fill="#94a3b8">agents read these to understand</text>
      <text x="12" y="62" font-size="9" fill="#94a3b8">what code does without reading it</text>
    </g>

    <!-- Embedding -->
    <g transform="translate(560, 60)">
      <rect width="250" height="68" fill="#fafafa" stroke="#e2e8f0" stroke-width="1" rx="4"/>
      <text x="12" y="20" font-family="monospace" font-size="11" font-weight="bold" fill="#1e293b">Embedding</text>
      <text x="12" y="36" font-size="9" fill="#64748b">vector representation (float[])</text>
      <text x="12" y="52" font-size="9" fill="#94a3b8">semantic search — find code by</text>
      <text x="12" y="62" font-size="9" fill="#94a3b8">meaning, not just keywords</text>
    </g>

    <!-- TaskRoute -->
    <g transform="translate(830, 60)">
      <rect width="270" height="68" fill="#fafafa" stroke="#e2e8f0" stroke-width="1" rx="4"/>
      <text x="12" y="20" font-family="monospace" font-size="11" font-weight="bold" fill="#1e293b">TaskRoute</text>
      <text x="12" y="36" font-size="9" fill="#64748b">maps task types → relevant entities</text>
      <text x="12" y="52" font-size="9" fill="#94a3b8">"fix auth bug" → component::api</text>
      <text x="12" y="62" font-size="9" fill="#94a3b8">with priority scores for ranking</text>
    </g>
  </g>

  <!-- ================================================================ -->
  <!-- SECTION 3: AGENT WORKFLOW                                        -->
  <!-- ================================================================ -->
  <g transform="translate(40, 868)">
    <rect width="1120" height="810" fill="#ffffff" stroke="#e2e8f0" stroke-width="1" rx="8"/>
    <rect width="1120" height="4" fill="#1e293b" y="0" rx="2"/>
    <text x="20" y="28" font-family="monospace" font-size="13" font-weight="bold" fill="#1e293b">How Agents Use the Graph</text>
    <text x="20" y="44" font-size="10" fill="#94a3b8">An agent receives a task, then navigates the graph to find, understand, and modify the right code</text>

    <!-- ── Scenario header ── -->
    <g transform="translate(20, 60)">
      <rect width="1080" height="36" fill="#fef3c7" fill-opacity="0.3" stroke="#d97706" stroke-width="1" rx="4"/>
      <text x="15" y="14" font-size="9" font-weight="bold" fill="#d97706">TASK</text>
      <text x="15" y="28" font-family="monospace" font-size="12" fill="#1e293b">"Add rate limiting to the API endpoints"</text>
    </g>

    <!-- Flow arrow down -->
    <line x1="560" y1="100" x2="560" y2="120" stroke="#94a3b8" stroke-width="1.5" marker-end="url(#arr-gray)"/>

    <!-- ── STEP 1: LOCATE ── -->
    <g transform="translate(20, 126)">
      <rect width="530" height="160" fill="#fafafa" stroke="#e2e8f0" stroke-width="1" rx="6"/>
      <rect width="530" height="3" fill="#3b82f6" y="0" rx="2"/>
      <rect x="10" y="12" width="24" height="24" fill="#dbeafe" stroke="#3b82f6" stroke-width="1" rx="12"/>
      <text x="22" y="29" text-anchor="middle" font-family="monospace" font-size="11" font-weight="bold" fill="#3b82f6">1</text>
      <text x="44" y="28" font-family="monospace" font-size="12" font-weight="bold" fill="#3b82f6">Locate</text>
      <text x="104" y="28" font-size="10" fill="#64748b">find the relevant part of the codebase</text>

      <text x="20" y="54" font-family="monospace" font-size="10" fill="#64748b">query entities where kind = Component</text>
      <text x="20" y="70" font-family="monospace" font-size="10" fill="#64748b">→ task_routes("api") → priority: component::acme-api</text>
      <text x="20" y="86" font-family="monospace" font-size="10" fill="#64748b">→ semantic search("rate limiting API")</text>

      <!-- Mini result -->
      <g transform="translate(20, 100)">
        <rect width="490" height="44" fill="#ffffff" stroke="#3b82f6" stroke-width="0.5" rx="3"/>
        <text x="10" y="16" font-size="9" font-weight="bold" fill="#3b82f6">RESULT</text>
        <text x="10" y="32" font-family="monospace" font-size="10" fill="#1e293b">component::acme-api</text>
        <text x="220" y="32" font-size="9" fill="#94a3b8">→ HTTP API server, crates/acme-api</text>
      </g>
    </g>

    <!-- ── STEP 2: TRAVERSE ── -->
    <g transform="translate(570, 126)">
      <rect width="530" height="160" fill="#fafafa" stroke="#e2e8f0" stroke-width="1" rx="6"/>
      <rect width="530" height="3" fill="#059669" y="0" rx="2"/>
      <rect x="10" y="12" width="24" height="24" fill="#d1fae5" stroke="#059669" stroke-width="1" rx="12"/>
      <text x="22" y="29" text-anchor="middle" font-family="monospace" font-size="11" font-weight="bold" fill="#059669">2</text>
      <text x="44" y="28" font-family="monospace" font-size="12" font-weight="bold" fill="#059669">Traverse</text>
      <text x="110" y="28" font-size="10" fill="#64748b">follow edges to discover structure</text>

      <text x="20" y="54" font-family="monospace" font-size="10" fill="#64748b">edges_from(component::acme-api)</text>
      <text x="20" y="70" font-family="monospace" font-size="10" fill="#64748b">→ contains → routes.rs, middleware.rs</text>
      <text x="20" y="86" font-family="monospace" font-size="10" fill="#64748b">→ depends_on → component::acme-core</text>

      <!-- Mini graph showing traversal -->
      <g transform="translate(20, 100)">
        <rect width="490" height="44" fill="#ffffff" stroke="#059669" stroke-width="0.5" rx="3"/>
        <text x="10" y="16" font-size="9" font-weight="bold" fill="#059669">DISCOVERED</text>
        <text x="10" y="32" font-family="monospace" font-size="9" fill="#1e293b">routes.rs (3 symbols)  middleware.rs (2 symbols)  → core dependency</text>
      </g>
    </g>

    <!-- Arrow 1→2 -->
    <line x1="552" y1="206" x2="568" y2="206" stroke="#94a3b8" stroke-width="1.5" marker-end="url(#arr-gray)"/>

    <!-- ── STEP 3: UNDERSTAND ── -->
    <g transform="translate(20, 306)">
      <rect width="530" height="185" fill="#fafafa" stroke="#e2e8f0" stroke-width="1" rx="6"/>
      <rect width="530" height="3" fill="#7c3aed" y="0" rx="2"/>
      <rect x="10" y="12" width="24" height="24" fill="#ede9fe" stroke="#7c3aed" stroke-width="1" rx="12"/>
      <text x="22" y="29" text-anchor="middle" font-family="monospace" font-size="11" font-weight="bold" fill="#7c3aed">3</text>
      <text x="44" y="28" font-family="monospace" font-size="12" font-weight="bold" fill="#7c3aed">Understand</text>
      <text x="126" y="28" font-size="10" fill="#64748b">read summaries and metadata</text>

      <text x="20" y="54" font-family="monospace" font-size="10" fill="#64748b">get_summary("symbol::acme-api::handle_request")</text>
      <text x="20" y="70" font-family="monospace" font-size="10" fill="#64748b">→ "Handles incoming HTTP requests, dispatches to"</text>
      <text x="20" y="82" font-family="monospace" font-size="10" fill="#64748b">   "handlers based on method and path"</text>

      <text x="20" y="104" font-family="monospace" font-size="10" fill="#64748b">get_summary("symbol::acme-api::authenticate")</text>
      <text x="20" y="120" font-family="monospace" font-size="10" fill="#64748b">→ "Validates JWT tokens, extracts user claims"</text>

      <!-- Decision -->
      <g transform="translate(20, 136)">
        <rect width="490" height="34" fill="#ffffff" stroke="#7c3aed" stroke-width="0.5" rx="3"/>
        <text x="10" y="14" font-size="9" font-weight="bold" fill="#7c3aed">INSIGHT</text>
        <text x="10" y="28" font-size="9" fill="#1e293b">Rate limiting should go in middleware.rs, applied before handle_request</text>
      </g>
    </g>

    <!-- ── STEP 4: ACT ── -->
    <g transform="translate(570, 306)">
      <rect width="530" height="185" fill="#fafafa" stroke="#e2e8f0" stroke-width="1" rx="6"/>
      <rect width="530" height="3" fill="#ea580c" y="0" rx="2"/>
      <rect x="10" y="12" width="24" height="24" fill="#fff7ed" stroke="#ea580c" stroke-width="1" rx="12"/>
      <text x="22" y="29" text-anchor="middle" font-family="monospace" font-size="11" font-weight="bold" fill="#ea580c">4</text>
      <text x="44" y="28" font-family="monospace" font-size="12" font-weight="bold" fill="#ea580c">Act</text>
      <text x="72" y="28" font-size="10" fill="#64748b">read files, write code, re-index</text>

      <text x="20" y="54" font-family="monospace" font-size="10" fill="#64748b">read api/src/middleware.rs        ← actual file</text>
      <text x="20" y="70" font-family="monospace" font-size="10" fill="#64748b">read api/src/routes.rs            ← actual file</text>
      <text x="20" y="86" font-family="monospace" font-size="10" fill="#64748b">write RateLimiter struct + middleware fn</text>
      <text x="20" y="102" font-family="monospace" font-size="10" fill="#64748b">wire into request pipeline</text>

      <!-- Re-index -->
      <g transform="translate(20, 118)">
        <rect width="490" height="50" fill="#ffffff" stroke="#ea580c" stroke-width="0.5" rx="3"/>
        <text x="10" y="16" font-size="9" font-weight="bold" fill="#ea580c">RE-INDEX</text>
        <text x="10" y="32" font-size="9" fill="#1e293b">chizu index . → graph updated with new RateLimiter symbol</text>
        <text x="10" y="44" font-size="9" fill="#94a3b8">sha256 detects changed files, only re-parses what changed</text>
      </g>
    </g>

    <!-- Arrow 1→3 (down) -->
    <line x1="285" y1="288" x2="285" y2="304" stroke="#94a3b8" stroke-width="1.5" marker-end="url(#arr-gray)"/>
    <!-- Arrow 2→4 (down) -->
    <line x1="835" y1="288" x2="835" y2="304" stroke="#94a3b8" stroke-width="1.5" marker-end="url(#arr-gray)"/>
    <!-- Arrow 3→4 -->
    <line x1="552" y1="398" x2="568" y2="398" stroke="#94a3b8" stroke-width="1.5" marker-end="url(#arr-gray)"/>

    <!-- ── KEY INSIGHT ── -->
    <g transform="translate(20, 515)">
      <rect width="1080" height="270" fill="#fafafa" stroke="#e2e8f0" stroke-width="1" rx="6"/>
      <text x="20" y="24" font-family="monospace" font-size="11" font-weight="bold" fill="#1e293b">Why a graph, not just file search?</text>

      <!-- 3 columns -->
      <!-- Column 1 -->
      <g transform="translate(20, 40)">
        <rect width="330" height="210" fill="#ffffff" stroke="#e2e8f0" stroke-width="0.5" rx="4"/>
        <rect width="330" height="3" fill="#3b82f6" y="0" rx="2"/>
        <text x="12" y="24" font-family="monospace" font-size="10" font-weight="bold" fill="#3b82f6">Structure-aware navigation</text>
        <text x="12" y="48" font-size="10" fill="#64748b">Agents don't grep blindly. They start</text>
        <text x="12" y="64" font-size="10" fill="#64748b">at a component, follow edges to find</text>
        <text x="12" y="80" font-size="10" fill="#64748b">source units and symbols. The graph</text>
        <text x="12" y="96" font-size="10" fill="#64748b">encodes how code is organized.</text>
        <text x="12" y="124" font-family="monospace" font-size="9" fill="#94a3b8">component::api</text>
        <line x1="120" y1="120" x2="150" y2="120" stroke="#3b82f6" stroke-width="1" marker-end="url(#arr-blue)"/>
        <text x="160" y="124" font-family="monospace" font-size="9" fill="#94a3b8">routes.rs</text>
        <line x1="222" y1="120" x2="252" y2="120" stroke="#059669" stroke-width="1" marker-end="url(#arr-green)"/>
        <text x="262" y="124" font-family="monospace" font-size="9" fill="#94a3b8">auth()</text>
        <text x="12" y="148" font-size="10" fill="#64748b">Instead of scanning 100 files, an agent</text>
        <text x="12" y="164" font-size="10" fill="#64748b">visits 3 nodes to reach the right code.</text>
        <text x="12" y="192" font-size="9" fill="#059669">3 hops vs. scanning 100 files</text>
      </g>

      <!-- Column 2 -->
      <g transform="translate(370, 40)">
        <rect width="330" height="210" fill="#ffffff" stroke="#e2e8f0" stroke-width="0.5" rx="4"/>
        <rect width="330" height="3" fill="#ea580c" y="0" rx="2"/>
        <text x="12" y="24" font-family="monospace" font-size="10" font-weight="bold" fill="#ea580c">Dependency awareness</text>
        <text x="12" y="48" font-size="10" fill="#64748b">depends_on edges tell agents what</text>
        <text x="12" y="64" font-size="10" fill="#64748b">other code might be affected by a</text>
        <text x="12" y="80" font-size="10" fill="#64748b">change. Before modifying the API,</text>
        <text x="12" y="96" font-size="10" fill="#64748b">the agent checks what depends on it.</text>
        <text x="12" y="124" font-family="monospace" font-size="9" fill="#94a3b8">acme-web</text>
        <line x1="80" y1="120" x2="120" y2="120" stroke="#ea580c" stroke-width="1" stroke-dasharray="4,2" marker-end="url(#arr-orange)"/>
        <text x="130" y="124" font-family="monospace" font-size="9" fill="#94a3b8">acme-core</text>
        <line x1="210" y1="120" x2="250" y2="120" stroke="#ea580c" stroke-width="1" stroke-dasharray="4,2" marker-end="url(#arr-orange)"/>
        <text x="260" y="124" font-family="monospace" font-size="9" fill="#94a3b8">acme-api</text>
        <text x="12" y="148" font-size="10" fill="#64748b">Change propagation is explicit, not</text>
        <text x="12" y="164" font-size="10" fill="#64748b">guessed. Agents know the blast radius.</text>
        <text x="12" y="192" font-size="9" fill="#ea580c">impact analysis before code changes</text>
      </g>

      <!-- Column 3 -->
      <g transform="translate(720, 40)">
        <rect width="340" height="210" fill="#ffffff" stroke="#e2e8f0" stroke-width="0.5" rx="4"/>
        <rect width="340" height="3" fill="#7c3aed" y="0" rx="2"/>
        <text x="12" y="24" font-family="monospace" font-size="10" font-weight="bold" fill="#7c3aed">Persistent context across sessions</text>
        <text x="12" y="48" font-size="10" fill="#64748b">The graph persists in SQLite. Agents</text>
        <text x="12" y="64" font-size="10" fill="#64748b">don't re-discover the codebase on</text>
        <text x="12" y="80" font-size="10" fill="#64748b">every task. Summaries and embeddings</text>
        <text x="12" y="96" font-size="10" fill="#64748b">accumulate, making agents smarter.</text>
        <text x="12" y="124" font-family="monospace" font-size="9" fill="#94a3b8">session 1: index → 128 entities</text>
        <text x="12" y="140" font-family="monospace" font-size="9" fill="#94a3b8">session 2: query → instant results</text>
        <text x="12" y="156" font-family="monospace" font-size="9" fill="#94a3b8">session 3: re-index → only changed files</text>
        <text x="12" y="192" font-size="9" fill="#7c3aed">knowledge compounds over time</text>
      </g>
    </g>
  </g>

  <!-- ================================================================ -->
  <!-- FOOTER                                                           -->
  <!-- ================================================================ -->
  <text x="600" y="1700" text-anchor="middle" font-size="10" fill="#94a3b8">chizu  ·  Rust workspace → knowledge graph → agent-navigable codebase map</text>
</svg>
